<svg width="14" height="11" viewBox="0 0 14 11" fill="none" xmlns="http://www.w3.org/2000/svg">
<path d="M9.39733 0.947633C9.71837 0.729055 9.78212 0.47177 9.51231 0.166672C9.95288 0.0938122 10.3878 0.217901 10.7999 0.304421C11.2928 0.409157 11.5444 0.828098 11.5706 1.3643C11.5808 1.57832 11.4215 1.88342 11.7892 1.98019C11.7914 2.37977 11.9702 2.65186 12.3561 2.77709C12.15 2.98086 11.8882 2.88979 11.6537 2.88979C11.3475 2.88979 11.1494 2.98428 11.0879 3.29962C11.3543 3.42827 11.6708 3.23701 11.911 3.45217C11.0833 3.55008 10.5323 4.12612 9.8971 4.57694C9.32106 4.9845 8.59588 5.07216 7.92193 5.25772C7.69993 5.2987 7.50071 5.25658 7.33678 5.09265C7.2218 4.64866 7.60317 4.66346 7.8411 4.54393C8.09952 4.561 8.35453 4.55303 8.57766 4.39365C9.08426 4.12954 9.48157 3.71857 9.93467 3.38387C10.094 3.26661 9.82196 3.33719 9.84701 3.25295C9.99842 2.77709 10.4697 2.49134 10.5858 1.99612C10.793 1.23338 10.6098 0.997724 9.82082 1.01252C9.67624 1.0148 9.52142 1.08424 9.39733 0.948771V0.947633Z" fill="#B5CCE2"/>
<path d="M2.23204 9.95026C1.97704 9.50286 1.46588 9.43683 1.07654 9.19662C-0.291851 8.35191 -0.443262 6.5475 1.13118 5.63676C1.37481 5.4956 1.60705 5.33394 1.89165 5.28271C2.16829 5.02201 2.53259 5.1313 2.85362 5.05388C3.05854 5.01518 3.26346 5.01518 3.46724 5.0573C3.69492 5.11536 3.93058 5.12902 4.16168 5.17342C4.37343 5.25197 4.59087 5.23489 4.81058 5.21668C4.96996 5.20302 5.14642 5.16204 5.23635 5.3624C5.12251 5.78476 4.77415 5.87128 4.41213 5.94072C3.40576 5.84737 2.41191 5.78134 1.55354 6.49627C1.08906 6.88334 0.877314 7.39677 0.727042 7.94891C0.646213 8.24604 0.802178 8.43501 1.06402 8.58984C1.41124 8.7959 1.80627 8.68547 2.16032 8.81297C2.32312 9.08733 2.28783 9.40154 2.33906 9.69867C2.33564 9.79544 2.30832 9.88309 2.23432 9.95026H2.23204Z" fill="#B7CAE1"/>
<path d="M5.87045 6.30851C5.91258 7.48223 5.59154 8.56829 5.07697 9.60767C4.66372 10.1587 4.20835 10.6516 3.49342 10.803C3.29078 10.8463 3.08928 10.9146 2.90371 10.7563C2.84451 10.6015 2.97088 10.523 3.04032 10.4205C3.35681 10.1268 3.6676 9.82625 3.85658 9.42666C3.81673 8.59106 4.24023 7.96947 4.78098 7.39685C5.1134 7.04507 5.2557 6.54986 5.63821 6.23223C5.72815 6.21971 5.8067 6.2402 5.87045 6.30737V6.30851Z" fill="#91B0D5"/>
<path d="M1.55353 2.09742C1.87229 0.878167 3.342 0.512732 4.33812 1.41437C4.89367 1.91641 5.23634 2.56532 5.52778 3.24382C5.64048 3.54436 5.46289 3.63089 5.21699 3.66731C4.91075 3.62405 4.74112 3.38271 4.53621 3.19373C4.0501 2.74291 3.54691 2.316 2.90256 2.10881C2.42443 1.95398 2.30147 2.05644 2.27074 2.56304C2.24797 2.93417 2.35498 3.31896 2.16031 3.67301C1.76528 3.71968 1.80171 3.3884 1.80171 3.18918C1.80171 2.79983 1.67875 2.45261 1.55353 2.0997V2.09742Z" fill="#9BB4D6"/>
<path d="M1.55357 2.09753C1.94291 2.29448 1.96113 2.66219 1.93381 3.01852C1.91331 3.2815 1.9543 3.49552 2.13531 3.68223C2.54286 3.70499 2.69428 4.04652 2.91285 4.30608C3.01076 4.65558 3.52647 4.72844 3.48434 5.17015C3.25894 5.16787 3.03467 5.16446 2.80926 5.16218C2.47911 5.20316 2.26281 4.96751 2.00439 4.83204C1.38622 4.46546 1.23595 3.8325 1.09706 3.20295C0.995741 2.74302 1.27807 2.41629 1.55357 2.09867V2.09753Z" fill="#89A1CB"/>
<path d="M12.8103 4.04639C13.4489 5.49219 12.2411 6.59191 10.7657 6.76609C10.5403 6.85489 10.3228 6.8731 10.1839 6.63176C10.0724 6.43822 10.1486 6.27543 10.3194 6.1502C10.6051 5.96919 10.9467 5.90999 11.2336 5.72671C11.7777 5.37949 12.1249 4.88768 12.3094 4.27521C12.479 4.20577 12.6964 4.2422 12.8091 4.04639H12.8103Z" fill="#ABBBDA"/>
<path d="M12.8103 4.04641C12.791 4.18416 12.8718 4.35834 12.7079 4.44372C12.5223 4.54049 12.4779 4.30938 12.3527 4.26043C11.9064 4.11016 11.5398 4.26499 11.1471 4.49267C10.3604 4.94804 9.53165 5.31917 8.59017 5.32258C8.38412 5.31006 8.17009 5.3408 7.97997 5.2281C7.95948 5.20533 7.94013 5.18256 7.92078 5.15979C8.29532 4.88315 8.77118 4.91389 9.18898 4.74426C9.6694 4.54845 10.1464 4.35834 10.4458 3.93712C10.8329 3.39181 11.3736 3.45784 11.9121 3.45215C12.3242 3.48061 12.5769 3.74928 12.8115 4.04527L12.8103 4.04641Z" fill="#9FB5D3"/>
<path d="M12.3561 2.77823C11.5922 2.7714 11.5466 2.70765 11.7891 1.98133C12.1898 1.97109 12.5621 1.83561 12.9435 1.73657C13.3271 1.63753 13.6197 1.35292 13.9999 1.21631C13.9237 1.93124 13.3476 2.46972 12.3561 2.77823Z" fill="#92ACD0"/>
<path d="M5.17374 3.58193C5.38549 3.56599 5.51869 3.46922 5.5278 3.24268C5.85908 3.67869 5.92169 4.21945 6.1027 4.71352C5.86477 5.09148 6.04236 5.46716 6.10725 5.84398C6.03212 5.84512 5.95584 5.8474 5.88071 5.84854C5.7737 5.85992 5.68262 5.82805 5.60635 5.75405C5.51755 5.57873 5.36045 5.48196 5.19424 5.39544C4.86865 5.21443 4.48158 5.59125 4.16965 5.28274C4.30968 5.05961 4.06833 5.13247 4.00344 5.08237C3.85772 4.97081 3.60613 4.93552 3.75185 4.65433C4.12298 4.49039 4.44743 4.74426 4.79692 4.775C5.39688 4.82737 5.4925 4.71352 5.2762 4.16139C5.20334 3.97582 5.04169 3.80392 5.17602 3.58193H5.17374Z" fill="#A6BCD6"/>
<path d="M3.13824 10.5092C3.05969 10.5912 2.98228 10.6743 2.90373 10.7562C2.60318 10.5513 2.37208 10.2884 2.23206 9.95024C2.23319 9.87283 2.23433 9.79541 2.23547 9.71686C2.31858 9.58936 2.3846 9.45047 2.40282 9.30134C2.5622 8.02516 3.47863 7.29543 4.37799 6.55431C4.46565 6.48145 4.57836 6.44957 4.69447 6.50422C4.83678 6.81615 4.57835 6.96528 4.40531 7.09734C3.89416 7.48668 3.54466 7.99784 3.22363 8.53631C2.96634 8.95867 2.76484 9.39469 2.88665 9.90926C2.92877 10.1256 3.00846 10.3271 3.13597 10.5081L3.13824 10.5092Z" fill="#B2C1D7"/>
<path d="M7.12499 6.07854C6.89047 5.8167 6.9565 5.40345 6.66962 5.1678C6.80167 5.02435 6.96105 4.97085 7.15117 5.01866C7.65436 5.38296 8.24975 5.53665 8.82124 5.74839C9.00453 5.8167 9.29141 5.78027 9.288 6.10472C8.97835 6.34152 8.61519 6.30964 8.25772 6.30736C7.9993 6.24816 7.75112 6.17417 7.53368 6.00682C7.3891 5.89639 7.22289 5.83719 7.12385 6.0774L7.12499 6.07854Z" fill="#D4DDE9"/>
<path d="M8.25883 6.30846C8.58214 6.14566 8.92936 6.09215 9.28683 6.07849C9.68414 5.93733 10.0632 5.96807 10.4241 6.1912C10.1406 6.58509 10.2112 6.70349 10.7656 6.7661C10.086 6.97785 9.44962 6.7274 8.80869 6.57029C8.61516 6.52248 8.44098 6.39839 8.25769 6.30959L8.25883 6.30846Z" fill="#BBCADC"/>
<path d="M6.10613 5.844C5.8238 5.46832 5.51756 5.09264 6.10158 4.71355C6.13573 4.70671 6.16988 4.70216 6.20517 4.7033C6.3896 4.95375 6.29739 5.37839 6.73454 5.48768C6.83928 5.51386 6.72202 5.72219 6.66055 5.83717C6.47612 5.83945 6.29056 5.84173 6.10613 5.84287V5.844Z" fill="#95A5CD"/>
<path d="M7.00774 4.70451C7.71243 4.16945 8.29416 3.51827 8.86338 2.84204C9.31192 2.30812 9.90504 1.9905 10.6473 2.08954C10.5334 2.57565 10.2716 2.95589 9.84698 3.22228C9.78664 3.35661 9.66483 3.4067 9.53846 3.4511C9.19238 3.53535 8.86338 3.64008 8.79962 4.06471C8.75181 4.22523 8.64821 4.34135 8.51388 4.4347C8.32262 4.49845 8.17918 4.72045 7.93556 4.6123C7.74772 4.76826 7.43351 4.75119 7.34471 5.04262C7.28438 5.12345 7.21152 5.11321 7.13524 5.06881C6.98042 5.10182 6.82445 5.1337 6.66963 5.16671C6.39185 4.72614 6.95879 4.90487 7.00774 4.70337V4.70451Z" fill="#92ACD0"/>
<path d="M8.47968 4.3595C8.52066 4.40162 8.56164 4.44488 8.60376 4.487C8.40568 4.65776 8.20759 4.83194 7.93665 4.61337C8.11766 4.52912 8.29867 4.44374 8.48081 4.3595H8.47968Z" fill="#D4DDE9"/>
<path d="M2.79557 9.95381C2.55195 9.37548 2.80354 8.91101 3.13596 8.46474C3.96929 8.00937 4.559 7.30468 5.09861 6.54877C5.17944 6.43493 5.18855 6.30287 5.15667 6.1674C5.21018 5.90214 5.33199 5.71316 5.63823 5.72569C5.73499 5.73365 5.82493 5.75756 5.87843 5.84977C5.87502 5.88734 5.87388 5.92491 5.87274 5.96362C5.85794 6.11958 5.73955 6.20496 5.64392 6.30742C5.30808 6.93128 4.92443 7.51985 4.43491 8.04011C4.16055 8.33041 3.95791 8.66852 4.08769 9.10454C4.1355 9.26506 4.07175 9.39711 3.95335 9.5064C3.57881 9.68514 3.1519 9.73067 2.79557 9.95494V9.95381Z" fill="#C7DAEA"/>
<path d="M5.6439 6.30621C5.64618 6.14227 5.72587 6.03071 5.87272 5.9624C6.04918 6.07966 5.90688 6.1935 5.86931 6.30848C5.79417 6.30848 5.71904 6.30621 5.64276 6.30621H5.6439Z" fill="#A6BCD6"/>
<path d="M2.10913 8.80057C2.26737 7.57903 3.05744 6.81173 4.00461 6.15828C4.14122 6.06379 4.3154 6.02053 4.39509 5.85318C4.6945 5.76096 4.94837 5.58792 5.19085 5.39553C5.56312 5.20314 5.64509 5.40464 5.63826 5.72567C5.45838 5.8509 5.29559 5.9932 5.18402 6.1856C5.17378 6.20837 5.16353 6.23 5.15329 6.25277C5.05538 6.36661 4.94154 6.45996 4.80493 6.52257C4.77988 6.52599 4.75598 6.52826 4.73093 6.53054C3.77579 6.99388 3.22251 7.84884 2.64875 8.67989C2.5349 8.84383 2.57589 9.04647 2.57589 9.23317C2.57589 9.47907 2.54629 9.69423 2.2355 9.717C2.04766 9.43126 2.14215 9.1068 2.10913 8.80057Z" fill="#93AED3"/>
<path d="M3.712 4.71128C3.79624 5.00955 4.13777 4.88319 4.3017 5.07444C4.54191 5.3545 4.27324 5.25545 4.16623 5.28164C3.93855 5.24407 3.68354 5.36929 3.48431 5.16779C3.34429 4.82626 2.89119 4.7443 2.81036 4.35382C3.19857 4.25136 3.50139 4.3652 3.712 4.71128Z" fill="#97AFD1"/>
<path d="M8.6038 5.1746C8.37725 5.3317 8.15184 5.34195 7.92529 5.17346C8.15184 5.17346 8.37725 5.17346 8.6038 5.1746Z" fill="#D4DDE9"/>
<path d="M9.5146 3.34741C9.29261 3.62405 9.09452 3.92801 8.72794 4.03958C8.67785 3.45329 9.11387 3.42141 9.5146 3.34741Z" fill="#ADC2DA"/>
<path d="M5.18625 6.18665C5.09632 6.3779 4.9654 6.51793 4.73999 6.53728C4.83562 6.35286 4.96426 6.20941 5.18625 6.18665Z" fill="#C7DAEA"/>
</svg>
