<svg width="80" height="104" viewBox="0 0 80 104" fill="none" xmlns="http://www.w3.org/2000/svg">
<g clip-path="url(#clip0_10_3045)">
<path d="M42.28 22.35C42.28 22.35 42.35 27.61 48.65 32.13C54.95 36.65 58.28 40.35 57.76 46.72C57.24 53.09 54.8 55.76 54.8 55.76C54.8 55.76 57.91 50.5 53.24 46.95C48.57 43.4 40.87 39.02 39.02 34.43C37.17 29.84 37.76 19.62 37.69 18.5C37.62 17.38 42.28 22.35 42.28 22.35Z" fill="#A2C5F2"/>
<path d="M54.8 55.76C54.8 55.76 48.73 61.91 46.58 65.91C44.43 69.91 42.21 77.69 44.28 84.06C46.35 90.43 49.13 94.87 49.13 94.87C49.13 94.87 53.69 92.43 56.28 95.24C58.87 98.05 60.65 101.02 61.02 103.54C61.02 103.54 61.69 95.84 58.8 91.17C55.91 86.5 49.47 78.8 50.5 70.21C51.53 61.62 52.65 57.91 54.8 55.77V55.76Z" fill="#A2C5F2"/>
<path d="M57.7699 46.72C58.2899 40.35 54.9599 36.65 48.6599 32.13C48.2699 31.85 47.8999 31.56 47.5499 31.28C48.9499 33.95 50.8799 38.04 51.3599 41.21C51.5999 42.77 51.5099 44.23 51.2799 45.52C51.9699 46.01 52.6399 46.49 53.2499 46.96C57.9199 50.52 54.8099 55.77 54.8099 55.77C54.8099 55.77 57.2499 53.1 57.7699 46.73V46.72Z" fill="#99B9DD"/>
<path d="M54.53 94.13C53.93 93.67 53.29 93.19 52.69 92.77C50.71 91.37 46.66 82.55 45.62 76.03C45.08 72.61 46.28 67.97 47.56 64.33C47.19 64.88 46.86 65.42 46.59 65.92C44.44 69.92 42.22 77.7 44.29 84.07C46.36 90.44 49.14 94.88 49.14 94.88C49.14 94.88 52.05 93.33 54.54 94.13H54.53Z" fill="#99B9DD"/>
<path d="M57.03 96.1C57.03 96.1 57.03 96.1 57.04 96.11L57.03 96.1Z" fill="#99B9DD"/>
<path d="M39.47 33.58C38.41 31.23 38.24 22.18 38.21 18.53C37.88 18.32 37.67 18.27 37.69 18.5C37.76 19.61 37.17 29.83 39.02 34.43C39.63 35.94 40.88 37.43 42.44 38.87C41.08 37.62 40.73 36.39 39.46 33.58H39.47Z" fill="#C0DEFF"/>
<path d="M52.9899 58.51C52.9899 58.51 47.6199 70.54 49.6999 75.87C51.7699 81.2 55.5799 86.78 57.8299 90.39C59.5199 93.1 60.5199 97.77 60.5399 101.68C60.7799 102.32 60.9499 102.94 61.0399 103.54C61.0399 103.54 61.7099 95.84 58.8199 91.17C55.9299 86.5 49.4899 78.8 50.5199 70.21C51.2199 64.44 51.9499 60.89 52.9999 58.51H52.9899Z" fill="#C0DEFF"/>
<path d="M37.56 35.44C38.37 33.59 40.13 32.55 39.55 29.14C38.97 25.73 36.5 23.7 33.83 27.26C33.83 27.26 19.69 45.69 17.91 52.36C17.25 54.85 17.3 57.06 17.72 58.91C17.72 58.91 19.28 61.29 27.93 63.36C27.93 63.36 25.71 61.36 26.97 53.43C28.23 45.5 36.75 37.28 37.56 35.43V35.44Z" fill="#A2C5F2"/>
<path d="M39.55 29.15C38.97 25.74 36.5 23.71 33.83 27.27C33.83 27.27 25.27 38.43 20.63 46.52C20.66 46.48 33.63 28.82 36.79 30.82C38.56 31.94 38.59 33.26 38.27 34.2C39.09 32.95 40 31.73 39.55 29.14V29.15Z" fill="#99B9DD"/>
<path d="M24.82 62.54C18.9 60.72 17.72 58.95 17.71 58.94C18.41 62.05 20.11 64.2 21.14 65.13C22.79 66.61 25.6 67.94 25.61 67.94C29.15 65.83 26.17 63.43 24.81 62.54H24.82Z" fill="#99B9DD"/>
<path d="M34.37 67.97C33.78 64.71 27.93 63.38 27.93 63.38C26.77 63.1 25.74 62.82 24.82 62.54C26.18 63.43 29.16 65.83 25.62 67.94C25.62 67.94 21.93 72.29 17.23 74.92C12.53 77.55 13.49 85.68 14.6 88.27C15.71 90.86 20.38 96.34 20.38 96.34C20.38 96.34 22.97 87.82 25.49 86.64C25.49 86.64 22.3 81.97 26.23 77.68C30.16 73.38 34.97 71.24 34.38 67.98L34.37 67.97Z" fill="#A2C5F2"/>
<path d="M24.7701 87.17C19.9501 90.45 15.7701 86 13.6901 83.01C13.7101 85.18 14.1401 87.19 14.6001 88.26C15.7101 90.85 20.3801 96.33 20.3801 96.33C20.3801 96.33 22.5101 89.36 24.7801 87.16L24.7701 87.17Z" fill="#99B9DD"/>
<path d="M26.97 53.44C27.58 49.62 29.87 45.73 32.18 42.52C32.18 42.52 26.69 48.67 25.76 55.23C24.83 61.79 25.66 61.57 25.69 62.77C26.39 62.97 27.12 63.17 27.94 63.36C27.94 63.36 25.72 61.36 26.98 53.43L26.97 53.44Z" fill="#C0DEFF"/>
<path d="M31.11 64.55C31.11 64.55 32.96 68.82 30.15 72.67C27.34 76.52 25.76 76.73 25.02 79.36C25.31 78.79 25.7 78.22 26.22 77.66C30.15 73.36 34.96 71.22 34.37 67.96C34.09 66.4 32.59 65.28 31.11 64.54V64.55Z" fill="#C0DEFF"/>
<path d="M18.02 6.58001C22.17 7.69001 25.95 10.88 29.5 13.54C32.98 16.15 36.77 19.13 36.93 19.25C36.78 18.54 36.48 17.75 35.94 16.87C35.94 16.87 28.61 9.61001 22.16 6.35001C16.78 3.63001 9.54 1.12001 5.88 1.32001C6.09 3.01001 13.89 5.47001 18.02 6.57001V6.58001Z" fill="#99B9DD"/>
<path d="M36.93 19.25C36.77 19.12 32.98 16.15 29.5 13.54C25.94 10.87 22.17 7.69001 18.02 6.58001C13.89 5.47001 6.08997 3.01001 5.87997 1.32001C5.15997 1.36001 4.56997 1.49001 4.16997 1.76001C1.71997 3.39001 0.979967 9.17001 1.79997 13.32C2.60997 17.47 5.64997 22.36 6.16997 22.8C6.68997 23.24 34.24 24.36 34.24 24.36C34.24 24.36 37.68 22.86 36.93 19.26V19.25Z" fill="#A2C5F2"/>
<path d="M24.12 18.19C20.63 17.99 16.34 18.08 12.38 18.85C11.88 18.93 11.33 19.05 10.74 19.21C10.67 19.23 10.61 19.24 10.54 19.26C10.5 19.27 10.46 19.28 10.41 19.29C5.29995 20.72 2.72995 16.42 2.69995 16.36C3.79995 19.23 5.39995 21.86 5.99995 22.61C6.00995 22.62 6.01995 22.63 6.02995 22.65C6.07995 22.72 6.12995 22.77 6.16995 22.8C6.17995 22.81 6.21995 22.83 6.27995 22.84C6.32995 22.85 6.40995 22.87 6.48995 22.88C9.57995 23.36 34.24 24.36 34.24 24.36C34.24 24.36 36.3699 23.42 36.91 21.27C34.84 20.49 29.07 18.47 24.12 18.19Z" fill="#99B9DD"/>
<path d="M10.02 43.94C11.46 44.69 13.42 44.79 16.19 43.53C22.04 40.86 25.82 34.27 29.08 31.01C32.31 27.78 35.54 25.35 35.59 25.31C33.56 25.57 28.21 26.76 20.04 32.34C12.53 37.47 10.54 41.83 10.02 43.94Z" fill="#99B9DD"/>
<path d="M36.34 22.05C36.34 22.05 28.71 19.53 22.56 19.61C16.41 19.68 7.81999 20.8 3.14999 24.72C-1.52001 28.65 2.70999 31.76 3.58999 33.46C4.47999 35.16 5.65999 37.31 6.84999 40.05C7.46999 41.49 8.40999 43.11 10.01 43.94C10.53 41.83 12.53 37.47 20.03 32.34C28.2 26.76 33.55 25.56 35.58 25.31C35.58 25.31 39.35 23.38 36.32 22.05H36.34Z" fill="#A2C5F2"/>
<path d="M25.4199 14.02C24.4899 13.81 24.1899 17.02 34.83 19.86C41.79 21.71 39.15 21.28 34.8799 19.48C32.6199 18.53 31.7499 18.34 29.7499 17.05C27.7499 15.76 26.3399 14.23 25.4199 14.02Z" fill="#99B9DD"/>
<path d="M34.82 23.43C34.82 23.43 28.6 21.54 24.6 23.43C20.6 25.32 19.99 26.58 21.4 26.56C22.81 26.54 27.16 23.43 29.32 23.43H34.82Z" fill="#99B9DD"/>
<path d="M29.5 13.54C25.94 10.87 22.17 7.69001 18.02 6.58001C13.89 5.47001 6.08999 3.01001 5.87999 1.32001C5.15999 1.36001 4.56999 1.49001 4.16999 1.76001C3.46999 2.23001 2.90999 3.05001 2.48999 4.06001C3.51999 3.37001 4.87999 2.84001 5.88999 3.87001C7.71999 5.76001 12.39 5.87001 15.83 7.20001C19.27 8.53001 22.5 8.46001 23.83 10.27C24.83 11.63 28.51 13.34 30.29 14.12C30.03 13.92 29.77 13.72 29.51 13.53L29.5 13.54Z" fill="#C0DEFF"/>
<path d="M12.94 37.94C11.49 38.77 8.89999 39.64 8.23999 37.94C7.56999 36.24 7.72999 34.9 5.32999 33.03C2.92999 31.16 2.69999 30.29 2.47999 28.8C2.10999 25.75 5.07999 23.4 5.11999 23.35C4.40999 23.76 3.74999 24.22 3.14999 24.72C-1.52001 28.65 2.70999 31.76 3.58999 33.46C4.47999 35.16 5.65999 37.31 6.84999 40.05C7.46999 41.49 8.40999 43.11 10.01 43.94C10.53 41.83 12.53 37.47 20.03 32.34C20.72 31.87 21.38 31.44 22.03 31.03C22.03 31.03 22.02 31.03 22.01 31.03C18.85 32.34 12.93 37.93 12.93 37.93L12.94 37.94Z" fill="#C0DEFF"/>
<path d="M39.05 21.03C39.14 21.06 39.14 21.06 39.05 21.03V21.03Z" fill="#C0DEFF"/>
<path d="M25 14.4C24.86 14.92 24.75 16.09 26.27 16.94C28.27 18.05 31.35 18.8 31.35 18.8C26.18 16.96 24.97 15.17 25 14.4Z" fill="#C0DEFF"/>
<path d="M16.19 43.53C20.72 41.46 24.01 37.05 26.78 33.64C26.78 33.64 17.37 44.56 10.02 43.94C11.46 44.69 13.42 44.79 16.19 43.53Z" fill="#A2C5F2"/>
<path d="M24.6 23.43C25.98 22.78 27.63 22.58 29.19 22.6L29.32 22.53C29.32 22.53 29.23 22.53 29.05 22.52C27.64 22.46 21.02 22.35 19.43 25.32C17.65 28.66 22.79 26.13 22.79 26.13C22.21 26.39 21.71 26.57 21.38 26.57C19.96 26.59 20.58 25.33 24.58 23.44L24.6 23.43Z" fill="#C0DEFF"/>
<path d="M61.74 6.27001C57.59 7.38001 53.81 10.57 50.26 13.23C46.78 15.84 42.99 18.82 42.83 18.94C42.98 18.23 43.28 17.44 43.82 16.56C43.82 16.56 51.15 9.30001 57.6 6.04001C62.98 3.32001 70.22 0.810009 73.88 1.01001C73.67 2.70001 65.87 5.16001 61.74 6.26001V6.27001Z" fill="#99B9DD"/>
<path d="M42.83 18.94C42.99 18.81 46.78 15.84 50.26 13.23C53.82 10.56 57.59 7.38002 61.74 6.27002C65.87 5.16002 73.67 2.70002 73.88 1.02002C74.6 1.06002 75.19 1.19002 75.59 1.46002C78.03 3.09002 78.78 8.87002 77.96 13.02C77.15 17.17 74.11 22.06 73.59 22.5C73.07 22.94 45.52 24.06 45.52 24.06C45.52 24.06 42.08 22.56 42.83 18.96V18.94Z" fill="#A2C5F2"/>
<path d="M55.64 17.87C59.13 17.67 63.42 17.76 67.38 18.53C67.88 18.61 68.43 18.73 69.02 18.89C69.09 18.91 69.15 18.92 69.22 18.94C69.26 18.95 69.3 18.96 69.35 18.97C74.46 20.4 77.03 16.1 77.06 16.04C75.96 18.91 74.36 21.54 73.76 22.29C73.75 22.3 73.74 22.31 73.73 22.33C73.68 22.4 73.63 22.45 73.59 22.48C73.58 22.49 73.54 22.51 73.48 22.52C73.43 22.53 73.35 22.55 73.27 22.56C70.18 23.04 45.52 24.04 45.52 24.04C45.52 24.04 43.39 23.1 42.85 20.95C44.92 20.17 50.69 18.15 55.64 17.87Z" fill="#99B9DD"/>
<path d="M69.7399 43.63C68.2999 44.38 66.3399 44.48 63.5699 43.22C57.7199 40.55 53.9399 33.96 50.6799 30.7C47.4499 27.47 44.2199 25.04 44.1699 25C46.1999 25.26 51.5499 26.45 59.7199 32.03C67.2299 37.16 69.2199 41.52 69.7399 43.63Z" fill="#99B9DD"/>
<path d="M43.42 21.74C43.42 21.74 51.05 19.22 57.2 19.3C63.35 19.37 71.94 20.49 76.61 24.41C81.28 28.34 77.05 31.45 76.17 33.15C75.28 34.85 74.1 37 72.91 39.74C72.29 41.18 71.35 42.8 69.75 43.63C69.23 41.52 67.23 37.16 59.73 32.03C51.56 26.45 46.21 25.25 44.18 25C44.18 25 40.41 23.07 43.44 21.74H43.42Z" fill="#A2C5F2"/>
<path d="M54.34 13.71C55.27 13.5 55.57 16.71 44.93 19.55C37.97 21.4 40.61 20.97 44.88 19.17C47.14 18.22 48.01 18.03 50.01 16.74C52.01 15.45 53.42 13.92 54.34 13.71Z" fill="#99B9DD"/>
<path d="M44.9399 23.12C44.9399 23.12 51.1599 21.23 55.1599 23.12C59.1599 25.01 59.7699 26.27 58.3599 26.25C56.9499 26.23 52.5999 23.12 50.4399 23.12H44.9399Z" fill="#99B9DD"/>
<path d="M50.26 13.23C53.82 10.56 57.59 7.38002 61.74 6.27002C65.87 5.16002 73.67 2.70002 73.88 1.02002C74.6 1.06002 75.19 1.19002 75.59 1.46002C76.29 1.93002 76.85 2.75002 77.27 3.76002C76.24 3.07002 74.88 2.54002 73.87 3.57002C72.04 5.46002 67.37 5.57002 63.93 6.90002C60.49 8.23002 57.26 8.16002 55.93 9.97002C54.93 11.33 51.25 13.04 49.47 13.82C49.73 13.62 49.99 13.42 50.25 13.23H50.26Z" fill="#C0DEFF"/>
<path d="M66.82 37.63C68.27 38.46 70.86 39.33 71.52 37.63C72.19 35.93 72.03 34.59 74.43 32.72C76.83 30.85 77.06 29.98 77.28 28.49C77.65 25.44 74.68 23.09 74.64 23.04C75.35 23.45 76.01 23.91 76.61 24.41C81.28 28.34 77.05 31.45 76.17 33.15C75.28 34.85 74.1 37 72.91 39.74C72.29 41.18 71.35 42.8 69.75 43.63C69.23 41.52 67.23 37.16 59.73 32.03C59.04 31.56 58.38 31.13 57.73 30.72C57.73 30.72 57.74 30.72 57.75 30.72C60.91 32.03 66.83 37.62 66.83 37.62L66.82 37.63Z" fill="#C0DEFF"/>
<path d="M40.71 20.72C40.62 20.75 40.62 20.75 40.71 20.72V20.72Z" fill="#C0DEFF"/>
<path d="M54.7599 14.08C54.8999 14.6 55.0099 15.77 53.4899 16.62C51.4899 17.73 48.4099 18.48 48.4099 18.48C53.5799 16.64 54.7899 14.85 54.7599 14.08Z" fill="#C0DEFF"/>
<path d="M63.57 43.22C59.04 41.15 55.75 36.74 52.98 33.33C52.98 33.33 62.39 44.25 69.74 43.63C68.3 44.38 66.34 44.48 63.57 43.22Z" fill="#A2C5F2"/>
<path d="M55.1599 23.12C53.7799 22.47 52.1299 22.27 50.5699 22.29L50.4399 22.22C50.4399 22.22 50.5299 22.22 50.7099 22.21C52.1199 22.15 58.7399 22.04 60.3299 25.01C62.1099 28.35 56.9699 25.82 56.9699 25.82C57.5499 26.08 58.0499 26.26 58.3799 26.26C59.7999 26.28 59.1799 25.02 55.1799 23.13L55.1599 23.12Z" fill="#C0DEFF"/>
<path d="M35.22 25.33C35.22 25.33 35.23 25.32 35.24 25.32C35.24 25.32 39.01 23.39 35.98 22.06C35.98 22.06 35.84 22.02 35.6 21.94C35.92 21.22 36.08 20.33 35.85 19.25C35.7 18.54 35.4 17.75 34.86 16.87C34.86 16.87 34.69 16.71 34.42 16.44C34.07 17.48 33.46 19.52 33.65 20.49C33.92 21.82 32.88 24.41 33.42 25.66C33.95 26.91 33.42 29.3 38.66 28.7C38.19 26.42 36.86 24.85 35.21 25.33H35.22Z" fill="#99B9DD"/>
<path d="M37.52 17.92C37.19 17.92 36.3499 15.98 34.9599 17.2C33.5699 18.42 34.2399 22.14 33.9599 23.59C33.6799 25.04 33.3999 27.92 36.8499 28.15C40.2999 28.38 43.8499 28.48 44.41 26.04C44.97 23.6 43.8499 21.82 43.8499 19.32C43.8499 16.82 43.0699 16.82 41.9599 17.1C40.8499 17.38 41.13 18.16 40.68 18.16C40.23 18.16 40.4 16.81 38.9 16.81C37.4 16.81 37.8399 17.94 37.5099 17.94L37.52 17.92Z" fill="#A2C5F2"/>
<path d="M37.52 17.92C37.19 17.92 36.3499 15.98 34.9599 17.2C33.5699 18.42 34.2399 22.14 33.9599 23.59C33.6799 25.04 33.3999 27.92 36.8499 28.15C40.2999 28.38 43.8499 28.48 44.41 26.04C44.97 23.6 43.8499 21.82 43.8499 19.32C43.8499 16.82 43.0699 16.82 41.9599 17.1C40.8499 17.38 41.13 18.16 40.68 18.16C40.23 18.16 40.4 16.81 38.9 16.81C37.4 16.81 37.8399 17.94 37.5099 17.94L37.52 17.92Z" fill="#A2C5F2"/>
<path d="M37.39 17.85C37.39 17.85 37.57 18.81 37.99 18.92L37.63 17.85C37.63 17.85 37.52 17.98 37.39 17.85Z" fill="#99B9DD"/>
<path d="M40.39 17.85C40.39 17.85 40.64 18.61 40.95 18.79C41.26 18.97 40.78 18.41 40.86 18.07C40.86 18.07 40.55 18.17 40.39 17.85Z" fill="#99B9DD"/>
<path d="M43.1899 25.72C42.1599 27.79 37.66 27.7 35.95 28C36.22 28.07 36.5099 28.12 36.8499 28.15C40.2899 28.37 43.85 28.48 44.41 26.04C44.82 24.23 44.3199 22.79 44.0299 21.15C43.5599 23.36 43.7599 24.57 43.1899 25.72Z" fill="#C0DEFF"/>
</g>
<defs>
<clipPath id="clip0_10_3045">
<rect width="77.76" height="102.54" fill="white" transform="translate(1 1)"/>
</clipPath>
</defs>
</svg>
