<svg width="24" height="24" viewBox="0 0 24 24" fill="none" xmlns="http://www.w3.org/2000/svg">
<g clip-path="url(#clip0_6_850)">
<path d="M11.6189 20.7755C11.1731 20.5505 8.91781 19.0563 8.52898 11.7456C8.29049 7.21466 8.54972 4.91703 8.84523 3.75483C9.00077 3.15498 9.43108 2.67832 9.99619 2.45873L10.5665 2.23914C10.9242 2.09989 11.2923 2.43195 11.2042 2.81757C10.8827 4.23685 10.3747 7.26822 10.6028 11.6225C10.7894 15.1037 11.8937 18.3493 11.8937 18.3493L12.35 19.0509L11.6189 20.7701V20.7755Z" fill="#A2C5F2"/>
<path d="M12.8114 21.0111C12.8114 21.0111 12.0545 19.0723 12.0182 19.1205C12.0441 19.0884 12.7336 18.2208 13.6358 13.1542C14.4238 8.73569 14.8645 5.41511 15.0563 3.79767C15.1393 3.10142 15.5281 2.49086 16.1139 2.13738L17.1094 1.53217C17.2701 1.43577 17.4671 1.56431 17.4412 1.75712C17.2597 3.24602 16.6324 8.16798 15.6733 13.5398C14.3875 20.7326 13.361 20.9147 12.8114 21.0058V21.0111Z" fill="#A2C5F2"/>
<path d="M10.9605 20.1917C10.9605 20.1917 10.411 19.9239 9.6333 18.526C8.85562 17.1282 6.56407 13.6309 5.24202 13.3631C3.91997 13.0953 3.96145 13.8076 3.96145 13.8076L4.38139 14.2361C4.38139 14.2361 4.65099 14.054 5.25758 14.2468C6.253 14.5681 7.12918 16.1588 7.5906 17.005C8.05202 17.8512 8.35273 18.9224 8.8297 19.4472C9.30668 19.9721 10.1569 20.5612 10.9605 20.2667" fill="#99B9DD"/>
<path d="M9.06814 19.2383C8.10382 19.0027 5.94188 17.5352 4.87387 16.1695C4.23618 15.35 4.29321 14.4342 4.38134 14.236C4.38134 14.236 4.38134 13.8611 4.74944 13.6041C5.11754 13.347 5.48564 13.4434 5.48564 13.4434C5.48564 13.4434 4.77018 13.1756 4.25691 13.3898C3.74365 13.6041 3.44813 14.2628 3.50516 14.9698C3.61922 16.3998 5.53749 17.9904 5.53749 17.9904C5.53749 17.9904 7.61129 19.6132 9.25478 20.4755C10.8983 21.3378 10.9242 21.4556 10.9242 21.4556L11.6034 20.5023C11.6034 20.5023 10.6235 19.6186 9.07332 19.2383H9.06814Z" fill="#A2C5F2"/>
<path d="M18.9758 14.943C18.9758 14.943 19.2039 15.7036 18.4106 17.0264C17.6174 18.3493 15.6369 19.8489 15.6369 19.8489L12.9565 21.1343C12.9565 21.1343 13.0602 21.4075 13.9831 21.3004C14.9059 21.1932 16.482 20.4006 17.8611 19.0777C19.2402 17.7548 19.6757 17.2353 20.0334 16.7587C20.3911 16.282 20.2252 15.1626 20.2252 15.1626C20.2252 15.1626 19.0898 14.3325 18.9706 14.943H18.9758Z" fill="#99B9DD"/>
<path d="M13.3299 20.5345C13.3299 20.5345 14.3253 20.6683 14.8282 19.6133C15.3311 18.5582 16.2539 15.4036 17.8819 14.5681C19.5098 13.7326 20.4741 14.5842 20.5052 15.3554C20.5363 16.1267 20.0438 16.7533 20.0438 16.7533C20.0438 16.7533 20.5052 14.386 19.0484 14.9109C17.5915 15.4358 16.4717 18.1833 16.0517 19.0295C15.6318 19.8757 15.0304 21.4556 13.2417 21.2039C11.4531 20.9522 12.6507 20.4327 13.3299 20.5345Z" fill="#A2C5F2"/>
<path d="M10.6183 21.236C10.6183 21.236 10.1621 20.0417 11.2768 19.1848C12.3914 18.3278 12.8062 19.2812 13.3454 19.7792C13.8846 20.2773 13.3143 21.6859 12.8062 21.8198C12.2981 21.9537 11.3597 22.5857 10.6183 21.236Z" fill="#99B9DD"/>
<path d="M10.665 21.9323C10.665 21.9323 10.3384 20.3256 11.3442 19.5544C12.35 18.7831 12.7285 19.6454 13.2158 20.0899C13.7031 20.5345 13.1847 21.8145 12.7285 21.9323C12.2722 22.0502 11.3338 23.1534 10.665 21.9323Z" fill="#A2C5F2"/>
<path d="M12.9514 21.4878C12.6611 21.7716 12.6559 21.6163 12.3448 21.7877C12.1271 21.9055 11.6605 21.9484 11.6034 21.852C11.5464 21.7556 11.5516 21.6324 11.4064 21.536C11.2613 21.4396 11.0902 21.4449 10.9865 21.536C10.8828 21.627 10.6288 21.0647 10.6288 21.0593C10.5873 21.5467 10.665 21.9323 10.665 21.9323C11.339 23.1534 12.2671 22.0501 12.7285 21.9323C12.8944 21.8895 13.0655 21.6967 13.1951 21.4449C13.2055 21.4182 13.2158 21.4021 13.2262 21.3807C13.2469 21.3325 13.2677 21.2843 13.2832 21.2361C13.2832 21.1879 13.1588 21.2789 12.941 21.4878H12.9514Z" fill="#BBDEFF"/>
<path d="M11.1627 19.8864C11.2456 19.7418 11.4374 19.6293 11.6759 19.5222C11.847 19.4418 12.0544 19.3186 12.2255 19.4097C12.6299 19.6346 12.7336 19.6186 12.8528 19.9506C12.972 20.2827 12.7854 19.7953 12.6558 19.7471C12.5262 19.6989 12.241 19.3883 11.9507 19.5436C11.6604 19.6989 11.4841 19.6775 11.2871 19.9239C11.0901 20.1702 11.0175 20.122 11.1627 19.881V19.8864Z" fill="#BBDEFF"/>
<path d="M3.50523 14.9697C3.5467 15.4678 3.80593 15.9873 4.12737 16.4533C4.07034 16.3622 3.86296 15.9873 3.80074 15.5856C3.72816 15.1197 3.88888 14.8412 3.92517 14.6644C3.96146 14.4877 3.88888 14.3752 3.88888 14.0967C3.88888 13.8182 4.2518 13.3898 4.2518 13.3898C3.7489 13.5933 3.4482 14.2681 3.50004 14.9697H3.50523Z" fill="#BBDEFF"/>
<path d="M19.292 14.2361C18.9031 14.1986 18.4262 14.2843 17.8766 14.5682C17.1456 14.9431 16.5546 15.7893 16.0828 16.6997C16.1087 16.6676 16.9071 15.5911 17.2493 15.3876C17.5966 15.1787 17.69 15.1519 18.0581 14.8145C18.421 14.4825 18.5039 14.2468 19.2972 14.2361H19.292Z" fill="#BBDEFF"/>
<path d="M10.6183 19.8435C10.6183 19.8435 11.7382 18.9866 11.6034 18.2422C11.4686 17.4977 11.4738 16.9086 11.4738 16.9086C11.4738 16.9086 11.9197 18.5796 12.3033 18.8366C12.687 19.0937 11.8523 19.1366 11.8523 19.1366L10.7842 19.9239L10.6132 19.8435H10.6183Z" fill="#99B9DD"/>
<path d="M12.5314 18.9759C12.5314 18.9759 12.267 19.2383 12.9721 16.3569C12.9721 16.3569 12.3551 18.5314 12.2152 18.7617C12.0752 18.992 12.5314 18.9813 12.5314 18.9813V18.9759Z" fill="#99B9DD"/>
<path d="M8.95415 4.63312C9.4726 3.44414 9.49333 3.19777 10.7013 2.22302C10.6598 2.22302 10.6132 2.23373 10.5717 2.25516L10.0014 2.47474C9.44149 2.68898 9.00599 3.17099 8.85046 3.76549C8.58605 4.80451 8.35274 6.75937 8.47717 10.3959C8.47717 10.0639 8.45643 5.77926 8.95415 4.63312Z" fill="#BBDEFF"/>
<path d="M15.0563 3.7976C14.9941 4.31711 14.9059 5.008 14.7919 5.85422C14.7919 5.85422 15.3362 3.71191 15.4503 3.3852C15.5644 3.0585 16.1139 2.99959 16.285 2.69966C16.4561 2.39974 17.1093 1.5321 17.1093 1.5321L16.1139 2.13731C15.5333 2.49079 15.1392 3.10135 15.0563 3.7976Z" fill="#BBDEFF"/>
</g>
<defs>
<clipPath id="clip0_6_850">
<rect width="17" height="21" fill="white" transform="translate(3.5 1.5)"/>
</clipPath>
</defs>
</svg>
