<svg width="302" height="30" viewBox="0 0 302 30" fill="none" xmlns="http://www.w3.org/2000/svg">
<g clip-path="url(#clip0_10_3091)">
<g clip-path="url(#clip1_10_3091)">
<path d="M248.04 16.0096C248.04 16.0096 232.168 14.5216 217.464 21.4835C202.76 28.4454 191.015 31.7271 171.895 29.123C152.775 26.5189 145.158 22.4933 145.158 22.4933C145.158 22.4933 160.484 28.1797 172.001 23.0911C183.519 18.0026 198.025 9.14073 212.198 8.07784C226.371 7.01496 257.084 10.8679 260.453 11.1071C263.821 11.3462 248.055 16.0096 248.055 16.0096H248.04Z" fill="#A2C5F2"/>
<path d="M145.143 22.48C145.143 22.48 127.647 12.6084 115.947 8.56947C104.248 4.5305 81.198 -0.730792 61.6231 0.0796599C42.0633 0.903398 28.1788 3.22846 28.1788 3.22846C28.1788 3.22846 34.7644 9.99109 25.8267 12.5553C16.8891 15.1195 7.66305 16.5943 0 16.3286C0 16.3286 23.1105 19.5305 37.6931 17.1124C52.2605 14.7077 76.6001 8.51633 102.336 12.4623C128.072 16.4083 139.043 18.9991 145.158 22.48H145.143Z" fill="#A2C5F2"/>
<path d="M171.895 29.1098C191.015 31.7138 202.76 28.4189 217.464 21.4703C218.374 21.0318 219.3 20.6332 220.225 20.2612C211.94 21.3108 199.27 22.6262 189.634 22.3073C184.899 22.1479 180.499 21.6031 176.66 20.9122C175.066 21.6828 173.504 22.4136 172.001 23.0779C160.484 28.1665 145.158 22.48 145.158 22.48C145.158 22.48 152.775 26.5057 171.895 29.1098Z" fill="#99B9DD"/>
<path d="M29.4989 10.5756C30.986 9.9246 32.5338 9.22044 33.9299 8.55613C38.4973 6.36392 65.796 3.66685 85.6289 4.26472C96.0385 4.5703 109.817 7.57296 120.575 10.3365C118.967 9.67216 117.419 9.07429 115.947 8.56942C104.263 4.54373 81.198 -0.730849 61.623 0.0796024C42.0633 0.90334 28.1788 3.22841 28.1788 3.22841C28.1788 3.22841 32.3517 7.5331 29.4989 10.5756Z" fill="#99B9DD"/>
<path d="M214.687 8.91487C221.955 8.22399 249.269 10.7218 260.286 11.7847C260.984 11.4127 261.181 11.1469 260.453 11.1071C257.084 10.8679 226.371 7.01496 212.198 8.07784C207.54 8.42328 202.836 9.63232 198.223 11.2532C202.214 9.83161 205.992 9.7386 214.702 8.91487H214.687Z" fill="#C0DEFF"/>
<path d="M137.176 19.2648C137.176 19.2648 101.82 8.55616 85.3859 9.68548C68.9521 10.8148 51.4712 14.1629 40.2118 16.0495C31.7445 17.4578 17.4958 17.3781 5.70534 16.2222C3.73268 16.3418 1.83588 16.3817 0.0149611 16.3152C-0.000213272 16.3285 23.1103 19.5172 37.6929 17.1124C52.2603 14.7076 76.5999 8.51631 102.336 12.4623C119.604 15.1195 130.211 17.1523 137.176 19.2515V19.2648Z" fill="#C0DEFF"/>
<path d="M258.996 12.4092C258.996 12.4092 270.665 10.2701 280.65 8.39676C290.634 6.52342 300.194 5.03538 301.105 10.589C302.015 16.1426 298.237 15.3852 299.936 17.9096C301.636 20.434 303.897 25.2834 299.269 25.682C294.64 26.0806 282.501 25.9477 273.412 22.7192C264.322 19.4774 245.9 14.8405 258.996 12.4224V12.4092Z" fill="#A2C5F2"/>
<path d="M259.148 21.0318C259.269 20.992 259.33 20.9255 259.436 20.8857C254.656 22.1213 249.451 19.8494 249.451 19.8494C252.486 21.8423 257.63 21.6164 259.148 21.0318Z" fill="#99B9DD"/>
<path d="M301.97 22.6395C301.788 21.0451 300.786 19.1718 299.921 17.8963C299.648 17.4845 299.527 17.1656 299.496 16.8866C299.496 16.8866 297.159 19.69 301.97 22.6395Z" fill="#99B9DD"/>
<path d="M280.635 8.39667C274.489 9.55256 267.706 10.8014 263.397 11.5986L262.395 11.7846C262.395 11.7846 281.773 9.93785 290.21 8.71553C296.689 7.78551 296.416 6.89534 295.475 6.77576C291.606 6.43033 286.173 7.34707 280.619 8.39667H280.635Z" fill="#99B9DD"/>
<path d="M298.297 7.38696C299.011 7.74569 300.862 9.08758 301.135 13.2594C301.256 12.5685 301.272 11.7182 301.09 10.5889C300.832 8.98129 299.815 7.98484 298.313 7.40025L298.297 7.38696Z" fill="#BBDEFF"/>
<path d="M271.287 21.9752C271.287 21.9752 271.409 22.015 271.621 22.0814L271.287 21.7626V21.9884V21.9752Z" fill="#BBDEFF"/>
<path d="M299.253 25.6687C300.528 25.5624 301.256 25.1107 301.651 24.4729C300.483 25.4827 295.43 25.496 291.135 24.8981C286.81 24.3135 282.653 20.341 280.741 21.4437C278.829 22.5332 279.451 22.5332 277.372 22.8786C275.657 23.1576 272.638 22.3605 271.636 22.0682H271.651C272.273 22.294 272.85 22.4933 273.412 22.6926C282.501 25.9344 294.656 26.054 299.269 25.6554L299.253 25.6687Z" fill="#BBDEFF"/>
<path d="M261.424 16.1558C261.424 16.1558 264.474 18.7466 271.454 15.9432C271.454 15.9432 263.867 17.4047 261.424 16.1558Z" fill="#BBDEFF"/>
<path d="M261.151 14.2958C261.151 14.2958 265.718 17.1789 272.213 15.7041C272.213 15.7041 264.808 18.3347 261.06 15.9433L261.151 14.2958Z" fill="#99B9DD"/>
<path d="M262.41 11.7848L261.424 13.4455L260.468 16.2754L260.969 18.5075C260.969 18.5075 261.12 18.5607 261.196 18.5872C261.242 17.8166 261.302 16.6342 261.166 16.488C260.953 16.2622 262.531 11.7582 262.531 11.7582C262.486 11.7582 262.456 11.7715 262.41 11.7848Z" fill="#A2C5F2"/>
<path d="M247.19 13.4322C248.662 9.6191 248.283 8.58279 256.249 8.11778C261.029 7.83877 262.653 9.31352 262.516 11.1337C262.425 12.356 261.12 15.1063 261.044 15.9433C260.878 18.0159 261.758 20.0088 259.148 21.0319C257.63 21.6164 252.501 21.8423 249.451 19.8494C247.251 18.4012 246.553 15.0398 247.175 13.4322H247.19Z" fill="#A2C5F2"/>
<path d="M261.06 15.9565C261.12 15.2523 262.076 13.1531 262.41 11.7847C262.38 11.7847 259.239 12.0637 260.028 15.8502C260.665 18.9592 260.786 19.5305 260.802 19.6235C260.802 19.5969 260.832 19.5703 260.847 19.5437V19.5039C261.242 18.4941 260.953 17.232 261.06 15.9432V15.9565Z" fill="#99B9DD"/>
<path d="M256.249 8.1177C248.268 8.58271 248.662 9.61903 247.19 13.4321C246.72 14.6412 246.993 16.8334 248.101 18.4676C248.101 18.4543 246.735 15.1062 248.101 12.9273C249.466 10.7483 249.785 9.51274 250.604 10.3763C251.196 11.0008 252.789 11.7714 254.656 10.0442C255.46 9.30016 256.553 8.30371 259.451 8.94144C261.575 9.40645 262.167 9.84489 262.334 10.0442C261.803 8.76872 260.028 7.89184 256.249 8.10441V8.1177Z" fill="#BBDEFF"/>
</g>
</g>
<defs>
<clipPath id="clip0_10_3091">
<rect width="302" height="30" fill="white"/>
</clipPath>
<clipPath id="clip1_10_3091">
<rect width="302" height="30" fill="white"/>
</clipPath>
</defs>
</svg>
