<svg width="34" height="34" viewBox="0 0 34 34" fill="none" xmlns="http://www.w3.org/2000/svg">
<path d="M24.4366 15.8122C24.4267 13.9601 24.3473 12.957 23.7118 12.3031C22.9861 11.5546 21.8167 11.5546 19.4794 11.5546H17C14.6627 11.5546 13.4933 11.5546 12.7676 12.3031C12.0411 13.0507 12.0411 14.2556 12.0411 16.6637V20.9213C12.0411 23.3294 12.0411 24.5343 12.7676 25.2819C13.4933 26.0304 14.6627 26.0304 17 26.0304H19.4794C21.8167 26.0304 22.9861 26.0304 23.7118 25.2819C24.4383 24.5343 24.4383 23.3294 24.4383 20.9213V20.0698" stroke="#7E7E7E" stroke-width="1.5" stroke-linecap="round"/>
<path d="M9.56177 15.8122V20.9213C9.56177 21.5988 9.82299 22.2485 10.288 22.7276C10.753 23.2067 11.3836 23.4758 12.0412 23.4758M21.9589 11.5546C21.9589 10.877 21.6977 10.2273 21.2327 9.74821C20.7677 9.26914 20.137 9 19.4795 9H16.1736C13.0569 9 11.4982 9 10.5304 9.99798C9.98988 10.554 9.75103 11.2991 9.64607 12.4061" stroke="#7E7E7E" stroke-width="1.5" stroke-linecap="round"/>
</svg>
